<svg width="297" height="20" viewBox="0 0 297 20" fill="none" xmlns="http://www.w3.org/2000/svg">
<path d="M0.770597 2.01705V0.454545H11.6797V2.01705H7.10582V15H5.34446V2.01705H0.770597ZM17.8469 8.4375V15H16.1708V0.454545H17.8469V5.79545H17.989C18.2447 5.23201 18.6282 4.78456 19.1396 4.45312C19.6557 4.11695 20.3422 3.94886 21.1992 3.94886C21.9426 3.94886 22.5936 4.09801 23.1523 4.39631C23.7111 4.68987 24.1443 5.14205 24.4521 5.75284C24.7646 6.3589 24.9208 7.13068 24.9208 8.06818V15H23.2447V8.18182C23.2447 7.31534 23.0198 6.64536 22.57 6.17188C22.1249 5.69366 21.507 5.45455 20.7163 5.45455C20.167 5.45455 19.6746 5.57055 19.239 5.80256C18.8081 6.03456 18.4672 6.37311 18.2163 6.81818C17.9701 7.26326 17.8469 7.80303 17.8469 8.4375ZM34.5611 15.2273C33.5099 15.2273 32.6032 14.9953 31.8409 14.5312C31.0833 14.0625 30.4986 13.4091 30.0866 12.571C29.6795 11.7282 29.4759 10.7481 29.4759 9.63068C29.4759 8.51326 29.6795 7.52841 30.0866 6.67614C30.4986 5.81913 31.0715 5.15152 31.8054 4.6733C32.544 4.19034 33.4058 3.94886 34.3906 3.94886C34.9588 3.94886 35.5199 4.04356 36.0739 4.23295C36.6278 4.42235 37.1321 4.73011 37.5866 5.15625C38.0412 5.57765 38.4034 6.13636 38.6733 6.83239C38.9432 7.52841 39.0781 8.38542 39.0781 9.40341V10.1136H30.669V8.66477H37.3736C37.3736 8.04924 37.2505 7.5 37.0043 7.01705C36.7628 6.53409 36.4171 6.15294 35.9673 5.87358C35.5223 5.59422 34.9967 5.45455 34.3906 5.45455C33.723 5.45455 33.1454 5.62026 32.6577 5.9517C32.1747 6.27841 31.803 6.70455 31.5426 7.23011C31.2822 7.75568 31.152 8.31913 31.152 8.92045V9.88636C31.152 10.7102 31.294 11.4086 31.5781 11.9815C31.867 12.5497 32.267 12.983 32.7784 13.2812C33.2898 13.5748 33.884 13.7216 34.5611 13.7216C35.0014 13.7216 35.3991 13.66 35.7543 13.5369C36.1141 13.4091 36.4242 13.2197 36.6847 12.9688C36.9451 12.7131 37.1463 12.3958 37.2884 12.017L38.9077 12.4716C38.7372 13.0208 38.4508 13.5038 38.0483 13.9205C37.6458 14.3324 37.1487 14.6544 36.5568 14.8864C35.965 15.1136 35.2997 15.2273 34.5611 15.2273ZM51.4801 15V0.454545H56.3949C57.5313 0.454545 58.464 0.648674 59.1932 1.03693C59.9223 1.42045 60.4621 1.94839 60.8125 2.62074C61.1629 3.29309 61.3381 4.05777 61.3381 4.91477C61.3381 5.77178 61.1629 6.53172 60.8125 7.1946C60.4621 7.85748 59.9247 8.37831 59.2003 8.7571C58.4759 9.13116 57.5502 9.31818 56.4233 9.31818H52.446V7.72727H56.3665C57.143 7.72727 57.768 7.61364 58.2415 7.38636C58.7197 7.15909 59.0653 6.83712 59.2784 6.42045C59.4962 5.99905 59.6051 5.49716 59.6051 4.91477C59.6051 4.33239 59.4962 3.82339 59.2784 3.38778C59.0606 2.95218 58.7126 2.616 58.2344 2.37926C57.7562 2.13778 57.1241 2.01705 56.3381 2.01705H53.2415V15H51.4801ZM58.3267 8.46591L61.9062 15H59.8608L56.3381 8.46591H58.3267ZM70.3604 15.2273C69.3756 15.2273 68.5115 14.9929 67.7681 14.5241C67.0295 14.0554 66.4518 13.3996 66.0352 12.5568C65.6232 11.714 65.4173 10.7292 65.4173 9.60227C65.4173 8.46591 65.6232 7.47396 66.0352 6.62642C66.4518 5.77888 67.0295 5.12074 67.7681 4.65199C68.5115 4.18324 69.3756 3.94886 70.3604 3.94886C71.3453 3.94886 72.207 4.18324 72.9457 4.65199C73.689 5.12074 74.2667 5.77888 74.6786 6.62642C75.0953 7.47396 75.3036 8.46591 75.3036 9.60227C75.3036 10.7292 75.0953 11.714 74.6786 12.5568C74.2667 13.3996 73.689 14.0554 72.9457 14.5241C72.207 14.9929 71.3453 15.2273 70.3604 15.2273ZM70.3604 13.7216C71.1085 13.7216 71.7241 13.5298 72.207 13.1463C72.69 12.7628 73.0475 12.2585 73.2795 11.6335C73.5115 11.0085 73.6275 10.3314 73.6275 9.60227C73.6275 8.87311 73.5115 8.19366 73.2795 7.56392C73.0475 6.93419 72.69 6.42519 72.207 6.03693C71.7241 5.64867 71.1085 5.45455 70.3604 5.45455C69.6123 5.45455 68.9968 5.64867 68.5138 6.03693C68.0309 6.42519 67.6734 6.93419 67.4414 7.56392C67.2094 8.19366 67.0934 8.87311 67.0934 9.60227C67.0934 10.3314 67.2094 11.0085 67.4414 11.6335C67.6734 12.2585 68.0309 12.7628 68.5138 13.1463C68.9968 13.5298 69.6123 13.7216 70.3604 13.7216ZM81.5384 0.454545V15H79.8622V0.454545H81.5384ZM88.2844 0.454545V15H86.6083V0.454545H88.2844ZM93.3544 15V4.09091H95.0305V15H93.3544ZM94.2067 2.27273C93.88 2.27273 93.5982 2.16146 93.3615 1.93892C93.1295 1.71638 93.0135 1.44886 93.0135 1.13636C93.0135 0.823864 93.1295 0.556345 93.3615 0.333806C93.5982 0.111269 93.88 0 94.2067 0C94.5334 0 94.8127 0.111269 95.0447 0.333806C95.2815 0.556345 95.3999 0.823864 95.3999 1.13636C95.3999 1.44886 95.2815 1.71638 95.0447 1.93892C94.8127 2.16146 94.5334 2.27273 94.2067 2.27273ZM101.777 8.4375V15H100.1V4.09091H101.72V5.79545H101.862C102.118 5.24148 102.506 4.7964 103.027 4.46023C103.547 4.11932 104.22 3.94886 105.044 3.94886C105.782 3.94886 106.429 4.10038 106.983 4.40341C107.537 4.7017 107.967 5.15625 108.275 5.76705C108.583 6.37311 108.737 7.14015 108.737 8.06818V15H107.061V8.18182C107.061 7.32481 106.838 6.6572 106.393 6.17898C105.948 5.69602 105.337 5.45455 104.561 5.45455C104.026 5.45455 103.547 5.57055 103.126 5.80256C102.709 6.03456 102.38 6.37311 102.139 6.81818C101.897 7.26326 101.777 7.80303 101.777 8.4375ZM118.203 19.3182C117.393 19.3182 116.697 19.214 116.115 19.0057C115.533 18.8021 115.047 18.5322 114.659 18.196C114.276 17.8646 113.97 17.5095 113.743 17.1307L115.078 16.1932C115.23 16.392 115.421 16.6193 115.653 16.875C115.885 17.1354 116.203 17.3603 116.605 17.5497C117.012 17.7438 117.545 17.8409 118.203 17.8409C119.084 17.8409 119.811 17.6278 120.384 17.2017C120.956 16.7756 121.243 16.108 121.243 15.1989V12.983H121.101C120.978 13.1818 120.803 13.428 120.575 13.7216C120.353 14.0104 120.031 14.2685 119.609 14.4957C119.193 14.7183 118.629 14.8295 117.919 14.8295C117.038 14.8295 116.248 14.6212 115.547 14.2045C114.851 13.7879 114.299 13.1818 113.892 12.3864C113.49 11.5909 113.288 10.625 113.288 9.48864C113.288 8.37121 113.485 7.3982 113.878 6.5696C114.271 5.73627 114.818 5.09233 115.518 4.63778C116.219 4.1785 117.029 3.94886 117.947 3.94886C118.658 3.94886 119.221 4.06723 119.638 4.30398C120.059 4.53598 120.381 4.80114 120.604 5.09943C120.831 5.39299 121.006 5.63447 121.129 5.82386H121.3V4.09091H122.919V15.3125C122.919 16.25 122.706 17.0123 122.28 17.5994C121.858 18.1913 121.29 18.6245 120.575 18.8991C119.865 19.1785 119.074 19.3182 118.203 19.3182ZM118.146 13.3239C118.819 13.3239 119.387 13.17 119.851 12.8622C120.315 12.5545 120.668 12.1117 120.909 11.5341C121.151 10.9564 121.271 10.2652 121.271 9.46023C121.271 8.67424 121.153 7.98059 120.916 7.37926C120.679 6.77794 120.329 6.30682 119.865 5.96591C119.401 5.625 118.828 5.45455 118.146 5.45455C117.436 5.45455 116.844 5.63447 116.371 5.99432C115.902 6.35417 115.549 6.83712 115.312 7.44318C115.08 8.04924 114.964 8.72159 114.964 9.46023C114.964 10.2178 115.083 10.8878 115.32 11.4702C115.561 12.0478 115.916 12.5024 116.385 12.8338C116.858 13.1605 117.446 13.3239 118.146 13.3239ZM143.794 4.09091C143.709 3.37121 143.363 2.8125 142.757 2.41477C142.151 2.01705 141.408 1.81818 140.527 1.81818C139.883 1.81818 139.32 1.92235 138.837 2.13068C138.358 2.33901 137.984 2.62547 137.714 2.99006C137.449 3.35464 137.317 3.76894 137.317 4.23295C137.317 4.62121 137.409 4.95502 137.594 5.23438C137.783 5.509 138.025 5.73864 138.318 5.9233C138.612 6.10322 138.92 6.25237 139.241 6.37074C139.563 6.48437 139.859 6.5767 140.129 6.64773L141.607 7.04545C141.985 7.14489 142.407 7.2822 142.871 7.45739C143.339 7.63258 143.787 7.87169 144.213 8.17472C144.644 8.47301 144.999 8.85653 145.278 9.32528C145.558 9.79403 145.697 10.3693 145.697 11.0511C145.697 11.8371 145.491 12.5473 145.08 13.1818C144.672 13.8163 144.076 14.3205 143.29 14.6946C142.509 15.0687 141.559 15.2557 140.442 15.2557C139.4 15.2557 138.498 15.0876 137.736 14.7514C136.978 14.4152 136.382 13.9465 135.946 13.3452C135.515 12.7438 135.271 12.0455 135.214 11.25H137.033C137.08 11.7992 137.265 12.2538 137.587 12.6136C137.913 12.9687 138.325 13.2339 138.822 13.4091C139.324 13.5795 139.864 13.6648 140.442 13.6648C141.114 13.6648 141.718 13.5559 142.253 13.3381C142.788 13.1155 143.212 12.8078 143.524 12.4148C143.837 12.017 143.993 11.553 143.993 11.0227C143.993 10.5398 143.858 10.1468 143.588 9.84375C143.318 9.54072 142.963 9.29451 142.523 9.10511C142.082 8.91572 141.607 8.75 141.095 8.60795L139.305 8.09659C138.169 7.76989 137.269 7.3035 136.607 6.69744C135.944 6.09138 135.612 5.2983 135.612 4.31818C135.612 3.50379 135.832 2.79356 136.273 2.1875C136.718 1.5767 137.314 1.10322 138.062 0.767045C138.815 0.426136 139.656 0.255681 140.584 0.255681C141.521 0.255681 142.355 0.423768 143.084 0.759943C143.813 1.09138 144.391 1.54593 144.817 2.12358C145.248 2.70123 145.475 3.35701 145.499 4.09091H143.794ZM154.798 15.2273C153.775 15.2273 152.895 14.9858 152.156 14.5028C151.417 14.0199 150.849 13.3546 150.451 12.5071C150.054 11.6596 149.855 10.6913 149.855 9.60227C149.855 8.49432 150.058 7.51657 150.466 6.66903C150.877 5.81676 151.45 5.15152 152.184 4.6733C152.923 4.19034 153.785 3.94886 154.77 3.94886C155.537 3.94886 156.228 4.09091 156.843 4.375C157.459 4.65909 157.963 5.05682 158.356 5.56818C158.749 6.07955 158.993 6.67614 159.088 7.35795H157.412C157.284 6.8608 157 6.42045 156.559 6.03693C156.124 5.64867 155.537 5.45455 154.798 5.45455C154.145 5.45455 153.572 5.625 153.079 5.96591C152.592 6.30208 152.21 6.77794 151.936 7.39347C151.666 8.00426 151.531 8.72159 151.531 9.54545C151.531 10.3883 151.663 11.1222 151.929 11.7472C152.199 12.3722 152.577 12.8575 153.065 13.2031C153.557 13.5488 154.135 13.7216 154.798 13.7216C155.234 13.7216 155.629 13.6458 155.984 13.4943C156.339 13.3428 156.64 13.125 156.886 12.8409C157.132 12.5568 157.307 12.2159 157.412 11.8182H159.088C158.993 12.4621 158.759 13.0421 158.385 13.5582C158.015 14.0696 157.525 14.4768 156.914 14.7798C156.308 15.0781 155.603 15.2273 154.798 15.2273ZM167.97 15.2273C166.985 15.2273 166.121 14.9929 165.377 14.5241C164.639 14.0554 164.061 13.3996 163.645 12.5568C163.233 11.714 163.027 10.7292 163.027 9.60227C163.027 8.46591 163.233 7.47396 163.645 6.62642C164.061 5.77888 164.639 5.12074 165.377 4.65199C166.121 4.18324 166.985 3.94886 167.97 3.94886C168.955 3.94886 169.816 4.18324 170.555 4.65199C171.298 5.12074 171.876 5.77888 172.288 6.62642C172.705 7.47396 172.913 8.46591 172.913 9.60227C172.913 10.7292 172.705 11.714 172.288 12.5568C171.876 13.3996 171.298 14.0554 170.555 14.5241C169.816 14.9929 168.955 15.2273 167.97 15.2273ZM167.97 13.7216C168.718 13.7216 169.333 13.5298 169.816 13.1463C170.299 12.7628 170.657 12.2585 170.889 11.6335C171.121 11.0085 171.237 10.3314 171.237 9.60227C171.237 8.87311 171.121 8.19366 170.889 7.56392C170.657 6.93419 170.299 6.42519 169.816 6.03693C169.333 5.64867 168.718 5.45455 167.97 5.45455C167.222 5.45455 166.606 5.64867 166.123 6.03693C165.64 6.42519 165.283 6.93419 165.051 7.56392C164.819 8.19366 164.703 8.87311 164.703 9.60227C164.703 10.3314 164.819 11.0085 165.051 11.6335C165.283 12.2585 165.64 12.7628 166.123 13.1463C166.606 13.5298 167.222 13.7216 167.97 13.7216ZM177.472 19.0909V4.09091H179.091V5.82386H179.29C179.413 5.63447 179.583 5.39299 179.801 5.09943C180.024 4.80114 180.341 4.53598 180.753 4.30398C181.17 4.06723 181.733 3.94886 182.443 3.94886C183.362 3.94886 184.171 4.1785 184.872 4.63778C185.573 5.09706 186.12 5.74811 186.513 6.59091C186.906 7.43371 187.102 8.42803 187.102 9.57386C187.102 10.7292 186.906 11.7306 186.513 12.5781C186.12 13.4209 185.575 14.0743 184.879 14.5384C184.183 14.9976 183.381 15.2273 182.472 15.2273C181.771 15.2273 181.21 15.1113 180.788 14.8793C180.367 14.6425 180.043 14.375 179.815 14.0767C179.588 13.7737 179.413 13.5227 179.29 13.3239H179.148V19.0909H177.472ZM179.119 9.54545C179.119 10.3693 179.24 11.0961 179.482 11.7259C179.723 12.3509 180.076 12.8409 180.54 13.196C181.004 13.5464 181.572 13.7216 182.244 13.7216C182.945 13.7216 183.53 13.5369 183.999 13.1676C184.472 12.7936 184.827 12.2917 185.064 11.6619C185.305 11.0275 185.426 10.322 185.426 9.54545C185.426 8.77841 185.308 8.08712 185.071 7.47159C184.839 6.85133 184.486 6.36127 184.013 6.00142C183.544 5.63684 182.955 5.45455 182.244 5.45455C181.563 5.45455 180.99 5.62737 180.526 5.97301C180.062 6.31392 179.711 6.79214 179.474 7.40767C179.238 8.01847 179.119 8.73106 179.119 9.54545ZM196.233 15.2273C195.182 15.2273 194.275 14.9953 193.513 14.5312C192.755 14.0625 192.17 13.4091 191.759 12.571C191.351 11.7282 191.148 10.7481 191.148 9.63068C191.148 8.51326 191.351 7.52841 191.759 6.67614C192.17 5.81913 192.743 5.15152 193.477 4.6733C194.216 4.19034 195.078 3.94886 196.062 3.94886C196.631 3.94886 197.192 4.04356 197.746 4.23295C198.3 4.42235 198.804 4.73011 199.259 5.15625C199.713 5.57765 200.075 6.13636 200.345 6.83239C200.615 7.52841 200.75 8.38542 200.75 9.40341V10.1136H192.341V8.66477H199.045C199.045 8.04924 198.922 7.5 198.676 7.01705C198.435 6.53409 198.089 6.15294 197.639 5.87358C197.194 5.59422 196.669 5.45455 196.062 5.45455C195.395 5.45455 194.817 5.62026 194.33 5.9517C193.847 6.27841 193.475 6.70455 193.214 7.23011C192.954 7.75568 192.824 8.31913 192.824 8.92045V9.88636C192.824 10.7102 192.966 11.4086 193.25 11.9815C193.539 12.5497 193.939 12.983 194.45 13.2812C194.962 13.5748 195.556 13.7216 196.233 13.7216C196.673 13.7216 197.071 13.66 197.426 13.5369C197.786 13.4091 198.096 13.2197 198.357 12.9688C198.617 12.7131 198.818 12.3958 198.96 12.017L200.58 12.4716C200.409 13.0208 200.123 13.5038 199.72 13.9205C199.318 14.3324 198.821 14.6544 198.229 14.8864C197.637 15.1136 196.972 15.2273 196.233 15.2273ZM213.027 6.53409L211.521 6.96023C211.427 6.70928 211.287 6.46544 211.102 6.22869C210.922 5.98722 210.676 5.78835 210.364 5.6321C210.051 5.47585 209.651 5.39773 209.163 5.39773C208.496 5.39773 207.939 5.55161 207.494 5.85938C207.054 6.16241 206.834 6.5483 206.834 7.01705C206.834 7.43371 206.985 7.76278 207.288 8.00426C207.591 8.24574 208.065 8.44697 208.709 8.60795L210.328 9.00568C211.304 9.24242 212.03 9.60464 212.509 10.0923C212.987 10.5753 213.226 11.1979 213.226 11.9602C213.226 12.5852 213.046 13.1439 212.686 13.6364C212.331 14.1288 211.834 14.517 211.195 14.8011C210.555 15.0852 209.812 15.2273 208.964 15.2273C207.852 15.2273 206.931 14.9858 206.202 14.5028C205.473 14.0199 205.011 13.3144 204.817 12.3864L206.408 11.9886C206.559 12.5758 206.846 13.0161 207.267 13.3097C207.693 13.6032 208.25 13.75 208.936 13.75C209.717 13.75 210.338 13.5843 210.797 13.2528C211.261 12.9167 211.493 12.5142 211.493 12.0455C211.493 11.6667 211.36 11.3494 211.095 11.0938C210.83 10.8333 210.423 10.6392 209.874 10.5114L208.055 10.0852C207.056 9.84848 206.322 9.48153 205.854 8.98438C205.39 8.48248 205.158 7.85511 205.158 7.10227C205.158 6.48674 205.33 5.94223 205.676 5.46875C206.027 4.99527 206.502 4.62358 207.104 4.35369C207.71 4.08381 208.396 3.94886 209.163 3.94886C210.243 3.94886 211.09 4.18561 211.706 4.65909C212.326 5.13258 212.767 5.75758 213.027 6.53409ZM233.556 4.09091C233.471 3.37121 233.125 2.8125 232.519 2.41477C231.913 2.01705 231.169 1.81818 230.289 1.81818C229.645 1.81818 229.081 1.92235 228.598 2.13068C228.12 2.33901 227.746 2.62547 227.476 2.99006C227.211 3.35464 227.078 3.76894 227.078 4.23295C227.078 4.62121 227.171 4.95502 227.355 5.23438C227.545 5.509 227.786 5.73864 228.08 5.9233C228.373 6.10322 228.681 6.25237 229.003 6.37074C229.325 6.48437 229.621 6.5767 229.891 6.64773L231.368 7.04545C231.747 7.14489 232.168 7.2822 232.632 7.45739C233.101 7.63258 233.549 7.87169 233.975 8.17472C234.406 8.47301 234.761 8.85653 235.04 9.32528C235.319 9.79403 235.459 10.3693 235.459 11.0511C235.459 11.8371 235.253 12.5473 234.841 13.1818C234.434 13.8163 233.837 14.3205 233.051 14.6946C232.27 15.0687 231.321 15.2557 230.203 15.2557C229.162 15.2557 228.26 15.0876 227.498 14.7514C226.74 14.4152 226.143 13.9465 225.708 13.3452C225.277 12.7438 225.033 12.0455 224.976 11.25H226.794C226.842 11.7992 227.026 12.2538 227.348 12.6136C227.675 12.9687 228.087 13.2339 228.584 13.4091C229.086 13.5795 229.626 13.6648 230.203 13.6648C230.876 13.6648 231.48 13.5559 232.015 13.3381C232.55 13.1155 232.973 12.8078 233.286 12.4148C233.598 12.017 233.755 11.553 233.755 11.0227C233.755 10.5398 233.62 10.1468 233.35 9.84375C233.08 9.54072 232.725 9.29451 232.284 9.10511C231.844 8.91572 231.368 8.75 230.857 8.60795L229.067 8.09659C227.931 7.76989 227.031 7.3035 226.368 6.69744C225.705 6.09138 225.374 5.2983 225.374 4.31818C225.374 3.50379 225.594 2.79356 226.034 2.1875C226.48 1.5767 227.076 1.10322 227.824 0.767045C228.577 0.426136 229.417 0.255681 230.346 0.255681C231.283 0.255681 232.116 0.423768 232.846 0.759943C233.575 1.09138 234.152 1.54593 234.578 2.12358C235.009 2.70123 235.237 3.35701 235.26 4.09091H233.556ZM244.56 15.2273C243.537 15.2273 242.656 14.9858 241.918 14.5028C241.179 14.0199 240.611 13.3546 240.213 12.5071C239.815 11.6596 239.616 10.6913 239.616 9.60227C239.616 8.49432 239.82 7.51657 240.227 6.66903C240.639 5.81676 241.212 5.15152 241.946 4.6733C242.685 4.19034 243.546 3.94886 244.531 3.94886C245.298 3.94886 245.99 4.09091 246.605 4.375C247.221 4.65909 247.725 5.05682 248.118 5.56818C248.511 6.07955 248.755 6.67614 248.849 7.35795H247.173C247.045 6.8608 246.761 6.42045 246.321 6.03693C245.885 5.64867 245.298 5.45455 244.56 5.45455C243.906 5.45455 243.333 5.625 242.841 5.96591C242.353 6.30208 241.972 6.77794 241.697 7.39347C241.428 8.00426 241.293 8.72159 241.293 9.54545C241.293 10.3883 241.425 11.1222 241.69 11.7472C241.96 12.3722 242.339 12.8575 242.827 13.2031C243.319 13.5488 243.897 13.7216 244.56 13.7216C244.995 13.7216 245.391 13.6458 245.746 13.4943C246.101 13.3428 246.402 13.125 246.648 12.8409C246.894 12.5568 247.069 12.2159 247.173 11.8182H248.849C248.755 12.4621 248.52 13.0421 248.146 13.5582C247.777 14.0696 247.287 14.4768 246.676 14.7798C246.07 15.0781 245.365 15.2273 244.56 15.2273ZM254.976 8.4375V15H253.3V0.454545H254.976V5.79545H255.118C255.374 5.23201 255.757 4.78456 256.268 4.45312C256.785 4.11695 257.471 3.94886 258.328 3.94886C259.071 3.94886 259.723 4.09801 260.281 4.39631C260.84 4.68987 261.273 5.14205 261.581 5.75284C261.893 6.3589 262.05 7.13068 262.05 8.06818V15H260.374V8.18182C260.374 7.31534 260.149 6.64536 259.699 6.17188C259.254 5.69366 258.636 5.45455 257.845 5.45455C257.296 5.45455 256.804 5.57055 256.368 5.80256C255.937 6.03456 255.596 6.37311 255.345 6.81818C255.099 7.26326 254.976 7.80303 254.976 8.4375ZM271.548 15.2273C270.563 15.2273 269.699 14.9929 268.956 14.5241C268.217 14.0554 267.639 13.3996 267.223 12.5568C266.811 11.714 266.605 10.7292 266.605 9.60227C266.605 8.46591 266.811 7.47396 267.223 6.62642C267.639 5.77888 268.217 5.12074 268.956 4.65199C269.699 4.18324 270.563 3.94886 271.548 3.94886C272.533 3.94886 273.395 4.18324 274.133 4.65199C274.877 5.12074 275.454 5.77888 275.866 6.62642C276.283 7.47396 276.491 8.46591 276.491 9.60227C276.491 10.7292 276.283 11.714 275.866 12.5568C275.454 13.3996 274.877 14.0554 274.133 14.5241C273.395 14.9929 272.533 15.2273 271.548 15.2273ZM271.548 13.7216C272.296 13.7216 272.912 13.5298 273.395 13.1463C273.877 12.7628 274.235 12.2585 274.467 11.6335C274.699 11.0085 274.815 10.3314 274.815 9.60227C274.815 8.87311 274.699 8.19366 274.467 7.56392C274.235 6.93419 273.877 6.42519 273.395 6.03693C272.912 5.64867 272.296 5.45455 271.548 5.45455C270.8 5.45455 270.184 5.64867 269.701 6.03693C269.218 6.42519 268.861 6.93419 268.629 7.56392C268.397 8.19366 268.281 8.87311 268.281 9.60227C268.281 10.3314 268.397 11.0085 268.629 11.6335C268.861 12.2585 269.218 12.7628 269.701 13.1463C270.184 13.5298 270.8 13.7216 271.548 13.7216ZM285.482 15.2273C284.497 15.2273 283.633 14.9929 282.889 14.5241C282.151 14.0554 281.573 13.3996 281.156 12.5568C280.744 11.714 280.538 10.7292 280.538 9.60227C280.538 8.46591 280.744 7.47396 281.156 6.62642C281.573 5.77888 282.151 5.12074 282.889 4.65199C283.633 4.18324 284.497 3.94886 285.482 3.94886C286.466 3.94886 287.328 4.18324 288.067 4.65199C288.81 5.12074 289.388 5.77888 289.8 6.62642C290.216 7.47396 290.425 8.46591 290.425 9.60227C290.425 10.7292 290.216 11.714 289.8 12.5568C289.388 13.3996 288.81 14.0554 288.067 14.5241C287.328 14.9929 286.466 15.2273 285.482 15.2273ZM285.482 13.7216C286.23 13.7216 286.845 13.5298 287.328 13.1463C287.811 12.7628 288.169 12.2585 288.401 11.6335C288.633 11.0085 288.749 10.3314 288.749 9.60227C288.749 8.87311 288.633 8.19366 288.401 7.56392C288.169 6.93419 287.811 6.42519 287.328 6.03693C286.845 5.64867 286.23 5.45455 285.482 5.45455C284.733 5.45455 284.118 5.64867 283.635 6.03693C283.152 6.42519 282.795 6.93419 282.562 7.56392C282.33 8.19366 282.214 8.87311 282.214 9.60227C282.214 10.3314 282.33 11.0085 282.562 11.6335C282.795 12.2585 283.152 12.7628 283.635 13.1463C284.118 13.5298 284.733 13.7216 285.482 13.7216ZM296.659 0.454545V15H294.983V0.454545H296.659Z" fill="white"/>
</svg>
